<svg id="Layer_1" enable-background="new 0 0 512 512" height="60" viewBox="0 0 512 512" width="60" xmlns="http://www.w3.org/2000/svg"><g><g><g><path d="m255.837.472c-250.199 158.178-16.293 511.333 245.951 315.304.905-.701 3.777-5.408 3.777-5.408 36.649-152.326-88.178-312.909-249.728-309.896z" fill="#3b69af"/></g><g><path d="m346.488 365.926c-141.132 0-255.542-124.41-255.542-265.542l-86.366 108.791c-30.224 154.794 93.178 304.09 251.258 302.38 121.426.002 224.591-85.159 249.728-201.187-43.652 34.769-98.933 55.558-159.078 55.558z" fill="#00558c"/></g></g><g><path d="m171.305 454.314-2.901 11.581 2.901 8.462h129.207v-20.043z" fill="#f4dd45"/></g><g><g><path d="m392.264 391.414h-139.981l-3.767-9.588 3.767-10.454h139.982c90.985-3.777 90.915-133.39 0-137.133l-.199-.002-5.447-1.101 5.845-18.937 1.07.007c116.622 6.306 115.438 172.568-1.27 177.208z" fill="#f4dd45"/></g></g><g><g><path d="m171.305 474.356c-68.328-2.837-68.275-100.172 0-102.984h80.978v20.043h-80.978c-41.733 1.733-41.7 61.183 0 62.899z" fill="#ffaa50"/></g></g><g><g><path d="m351.829 233.372.401-20.043 40.302.806-.401 20.043z" fill="#ffaa50"/></g></g><g><g><g><path d="m354.467 493.491h-35.823c-16.102 0-29.156-13.054-29.156-29.156s13.054-29.156 29.156-29.156h35.823z" fill="#c10a54"/></g></g><g><g><g><path d="m376.516 444.972h23.28v15.032h-23.28z" fill="#afe6ff"/></g></g><g><g><path d="m376.516 469.025h23.28v15.032h-23.28z" fill="#afe6ff"/></g></g></g><g><g><g><path d="m354.467 444.972h22.558v15.032h-22.558z" fill="#91cdff"/></g></g><g><g><path d="m354.467 469.025h22.558v15.032h-22.558z" fill="#91cdff"/></g></g></g><g><g><path d="m348.454 429.166h12.026v70.337h-12.026z" fill="#d82e3d"/></g></g></g><g><g><g><path d="m301.621 29.754c-13.811-11.956-29.439-21.866-46.409-29.277-59.189.143-104.636 20.358-131.379 36.36l-34.148 29.026c-18.88 16.038-25.876 42.298-17.031 65.438 43.805 114.909 186.586 158.218 285.205 79.091.646-.5 2.697-3.86 2.697-3.86.053-.327.796-3.349 1.638-8.379z" fill="#0096f2"/></g><g><g><path d="m246.998 246.192c-76.139 0-141.384-46.647-168.715-112.922-26.563-13.364-37.973 12.769-43.29 42.026-9.509 52.321 30.873 132.882 30.873 132.882.858.712 1.723 1.416 2.593 2.112 46.345 38.736 119.685 51.181 177.469 28.427l64.613-41.273c24.59-24.298 42.364-55.604 50.013-90.914-31.158 24.822-70.622 39.662-113.556 39.662z" fill="#4278c3"/></g></g></g><g><g><path d="m153.549 182.646h11.615c4.483 0 7.911 3.682 8 8.163.087 4.343 3.635 7.838 7.999 7.838 14.5 0 26.255 11.755 26.255 26.255v16.971l64.749 17.43 54.106-30.099c0-16.876 13.681-30.557 30.557-30.557 1.833 0 3.622-.181 5.364-.494 11.497-60.902-14.618-130.562-60.573-168.398h-51.98c-10.127 0-18.318 8.271-18.222 18.366.052 6.72-5.205 12.264-11.926 12.264h-2.597c-4.198 0-7.94 2.777-9.101 6.61-.17.574-.279 1.162-.344 1.76.407 5.759-4.039 10.757-9.889 10.529-13.513.22-24.4 11.236-24.4 24.801v31.836c0 10.959-8.794 20.234-19.752 20.061-7.753-.122-14.022 6.375-13.522 14.208.439 6.865 6.78 12.456 13.661 12.456z" fill="#aad540"/></g></g><g><g><path d="m246.998 246.192c-13.594 0-26.836-1.499-39.581-4.319v25.887c0 10.141 8.299 18.239 18.44 18.31 10.052.07 18.18 8.24 18.18 18.309v23.31c0 3.866.675 7.57 1.891 11.019 24.389-9.086 46.374-23.249 64.611-41.27-.006-.656-.013-1.234-.017-1.732h.009v-1.726c.001-.028.001-.059.002-.087.001-.186.015-.369.028-.551.009-.125.02-.247.033-.362.023-.19.051-.378.088-.563.009-.045.017-.09.027-.135.042-.192.093-.381.149-.567.023-.077.045-.152.072-.232 1.053-3.15 4.086-5.346 7.632-5.417 1.145-.023 2.227-.297 3.202-.759 1.461-1.731 2.888-3.49 4.285-5.276.141-.59.224-1.202.224-1.835v-48.994c0-.376.015-.747.028-1.119-23.981 11.599-50.88 18.109-79.303 18.109z" fill="#8bc852"/></g></g><g><path d="m128.675 47.81c-.321-4.286-2.121-8.084-4.842-10.972-17.517 10.484-27.014 19.161-27.08 19.198-11.097 8.84-21.439 18.586-30.92 29.125l-7.892 31.443 20.341 16.663 1.464-.143c12.702-1.244 22.739-11.317 23.938-24.023l3.541-37.553c.221-2.347 2.076-4.208 4.422-4.436l.429-.042c9.789-.955 17.333-9.451 16.599-19.26z" fill="#aad540"/></g><g><path d="m99.001 223.764c-.472-4.82-4.792-8.12-9.62-7.744-4.68.364-8.811-3.085-9.27-7.777l-3.988-40.765c-.573-5.856-5.746-10.385-11.592-9.721-5.985.679-11.344-3.673-11.929-9.644l-.147-1.503c-.579-5.916 3.747-11.18 9.662-11.758l16.179-1.583c-6.235-15.121-10.492-31.264-12.462-48.106-30.813 34.24-52.489 76.859-61.229 124.017 9.428 40.565 32.387 75.936 63.865 101.102l-2.213-22.616c-.465-4.752 3.01-8.981 7.761-9.445l4.214-.412c4.751-.465 8.226-4.694 7.761-9.445l-.419-4.285c-.207-2.115.378-4.121 1.498-5.743.095-.137.192-.275.3-.412.131-.168.269-.332.411-.489.061-.067.119-.136.182-.202.22-.228.451-.449.696-.652 1.267-1.052 2.847-1.754 4.606-1.939 4.747-.502 8.313-4.524 7.848-9.275z" fill="#8bc852"/></g></g></g></svg>